<svg width="387" height="413" viewBox="0 0 387 413" fill="none" xmlns="http://www.w3.org/2000/svg">
<g filter="url(#filter0_d_2572_105)">
<path d="M36.7861 85.0382C29.8462 162.625 26.4264 204.94 24.763 269.259C27.1498 294.244 31.6904 305.04 49.743 314.333C122.38 345.583 173.06 369.639 232.514 392.236C257.569 394.857 267.313 389.498 277.135 375.961C297.332 326.35 307.122 270.441 326.192 200.187C331.069 172.774 327.053 160.867 306.749 146.281C231.133 102.402 120.841 41.54 120.841 41.54C120.841 41.54 100.006 27.9879 86.5288 29.0389C70.5597 31.873 63.1954 36.3414 53.5398 46.0791C42.3639 57.597 38.7243 66.1386 36.7861 85.0382Z" fill="#9333EA"/>
</g>
<g filter="url(#filter1_d_2572_105)">
<path d="M40.6532 86.567C43.692 164.404 45.7117 206.809 52.2871 270.813C57.8494 295.287 63.7334 305.414 82.8262 312.322C158.863 334.026 212.203 351.404 274.059 366.212C299.243 365.608 308.222 359.047 316.232 344.365C329.919 292.579 332.479 235.877 342.408 163.761C343.739 135.949 338.234 124.653 316.232 112.784C235.625 78.9346 118.455 32.677 118.455 32.677C118.455 32.677 96.0583 21.9005 82.8262 24.6664C67.3506 29.5193 60.6182 34.8928 52.2871 45.7854C42.6759 58.6379 40.1586 67.5748 40.6532 86.567Z" fill="white"/>
</g>
<defs>
<filter id="filter0_d_2572_105" x="4.76306" y="8.98071" width="343.304" height="403.9" filterUnits="userSpaceOnUse" color-interpolation-filters="sRGB">
<feFlood flood-opacity="0" result="BackgroundImageFix"/>
<feColorMatrix in="SourceAlpha" type="matrix" values="0 0 0 0 0 0 0 0 0 0 0 0 0 0 0 0 0 0 127 0" result="hardAlpha"/>
<feOffset/>
<feGaussianBlur stdDeviation="10"/>
<feComposite in2="hardAlpha" operator="out"/>
<feColorMatrix type="matrix" values="0 0 0 0 0 0 0 0 0 0 0 0 0 0 0 0 0 0 0.1 0"/>
<feBlend mode="normal" in2="BackgroundImageFix" result="effect1_dropShadow_2572_105"/>
<feBlend mode="normal" in="SourceGraphic" in2="effect1_dropShadow_2572_105" result="shape"/>
</filter>
<filter id="filter1_d_2572_105" x="16.5944" y="0.212402" width="370" height="410" filterUnits="userSpaceOnUse" color-interpolation-filters="sRGB">
<feFlood flood-opacity="0" result="BackgroundImageFix"/>
<feColorMatrix in="SourceAlpha" type="matrix" values="0 0 0 0 0 0 0 0 0 0 0 0 0 0 0 0 0 0 127 0" result="hardAlpha"/>
<feOffset dx="10" dy="10"/>
<feGaussianBlur stdDeviation="17"/>
<feComposite in2="hardAlpha" operator="out"/>
<feColorMatrix type="matrix" values="0 0 0 0 0.309804 0 0 0 0 0.305882 0 0 0 0 0.333333 0 0 0 0.1 0"/>
<feBlend mode="normal" in2="BackgroundImageFix" result="effect1_dropShadow_2572_105"/>
<feBlend mode="normal" in="SourceGraphic" in2="effect1_dropShadow_2572_105" result="shape"/>
</filter>
</defs>
</svg>
