<svg width="484" height="501" viewBox="0 0 484 501" fill="none" xmlns="http://www.w3.org/2000/svg">
<path d="M144.767 24C113.435 31.9358 104.729 40.4044 99.2559 60.0747L117.303 402H450.792C471.53 390.931 477.893 374.44 478.256 323.577C467.96 221.51 455.397 163.329 436.668 60.0747C427.224 45.7603 425.171 36.2025 388.018 34.9793L144.767 24Z" fill="#9333EA"/>
<g filter="url(#filter0_d_2601_642)">
<path d="M44.2559 361.695L81.7758 79.5321C90.7546 58.2465 98.7553 48.4931 125.299 37.5078C209.182 29.638 277.127 27.9585 390.94 24C420.273 32.8112 437.865 37.5281 452.473 79.5321C455.956 193.345 459.623 274.574 459.226 348.938C458.028 381.978 450.674 395.127 424.708 408.222C267.353 437.091 181.243 452.655 107.289 457C62.693 443.114 44.5831 423.961 44.2559 361.695Z" fill="white"/>
</g>
<defs>
<filter id="filter0_d_2601_642" x="0.255859" y="0" width="483" height="501" filterUnits="userSpaceOnUse" color-interpolation-filters="sRGB">
<feFlood flood-opacity="0" result="BackgroundImageFix"/>
<feColorMatrix in="SourceAlpha" type="matrix" values="0 0 0 0 0 0 0 0 0 0 0 0 0 0 0 0 0 0 127 0" result="hardAlpha"/>
<feOffset dx="-10" dy="10"/>
<feGaussianBlur stdDeviation="17"/>
<feComposite in2="hardAlpha" operator="out"/>
<feColorMatrix type="matrix" values="0 0 0 0 0.309804 0 0 0 0 0.305882 0 0 0 0 0.333333 0 0 0 0.1 0"/>
<feBlend mode="normal" in2="BackgroundImageFix" result="effect1_dropShadow_2601_642"/>
<feBlend mode="normal" in="SourceGraphic" in2="effect1_dropShadow_2601_642" result="shape"/>
</filter>
</defs>
</svg>
