<svg width="439" height="436" viewBox="0 0 439 436" fill="none" xmlns="http://www.w3.org/2000/svg">
<path d="M104.767 0C70.5 1.5 64.7286 16.4044 59.2559 36.0747L77.3035 378H410.792C428.5 364 437.893 350.44 438.256 299.577C436 193.5 415.397 139.329 396.668 36.0747C387.224 21.7603 385.171 12.2025 348.018 10.9793L104.767 0Z" fill="#9333EA"/>
<path d="M0 340.695L37.5199 58.5321C45.2441 27.5 51.7441 23 81.0431 16.5078C164.926 8.63801 232.871 6.95855 346.684 3C376.017 11.8112 393.61 16.5281 408.217 58.5321C411.7 172.345 415.367 253.574 414.971 327.938C413.772 360.978 411.744 375.5 380.452 387.222C223.097 416.091 136.987 431.655 63.0335 436C18.4371 422.114 0.327199 402.961 0 340.695Z" fill="white"/>
</svg>
