<svg width="119" height="24" viewBox="0 0 119 24" fill="none" xmlns="http://www.w3.org/2000/svg">
<path d="M5.94 9.01L9.78 12.49C11.79 14.29 12.24 15.37 12.24 17.38V17.92C12.24 21.7 10.8 23.8 6.45 23.8C2.1 23.8 0.66 22.03 0.66 17.2V16.6C0.66 15.73 0.9 15.49 1.77 15.49H3.81C4.68 15.49 4.92 15.73 4.92 16.6V17.92C4.92 19.12 5.4 19.6 6.45 19.6C7.5 19.6 7.98 19.15 7.98 18.07V17.5C7.98 16.66 7.8 16.24 6.69 15.25L3.09 12.04C1.08 10.27 0.66 9.25 0.66 7.24V6.58C0.66 2.8 2.1 0.699998 6.45 0.699998C10.8 0.699998 12.24 2.47 12.24 7.3V7.9C12.24 8.77 12 9.01 11.13 9.01H9.09C8.22 9.01 7.98 8.77 7.98 7.9V6.58C7.98 5.38 7.5 4.9 6.45 4.9C5.4 4.9 4.92 5.35 4.92 6.43V6.94C4.92 7.81 5.1 8.23 5.94 9.01ZM22.3606 22.39V14.29C22.3606 13.87 22.2406 13.75 21.8206 13.75H19.3606C18.9406 13.75 18.8206 13.87 18.8206 14.29V22.39C18.8206 23.26 18.5806 23.5 17.7106 23.5H15.7906C14.9206 23.5 14.6806 23.26 14.6806 22.39V2.11C14.6806 1.24 14.9206 0.999998 15.7906 0.999998H17.7106C18.5806 0.999998 18.8206 1.24 18.8206 2.11V9.01C18.8206 9.4 18.9406 9.55 19.3606 9.55H21.8206C22.2406 9.55 22.3606 9.4 22.3606 9.01V2.11C22.3606 1.24 22.6006 0.999998 23.4706 0.999998H25.3906C26.2606 0.999998 26.5006 1.24 26.5006 2.11V22.39C26.5006 23.26 26.2606 23.5 25.3906 23.5H23.4706C22.6006 23.5 22.3606 23.26 22.3606 22.39ZM33.8812 2.11V22.39C33.8812 23.26 33.6412 23.5 32.7712 23.5H30.8512C29.9812 23.5 29.7412 23.26 29.7412 22.39V2.11C29.7412 1.24 29.9812 0.999998 30.8512 0.999998H32.7712C33.6412 0.999998 33.8812 1.24 33.8812 2.11ZM45.0166 22.66L42.6166 15.37C42.4666 14.95 42.3466 14.83 41.8966 14.83H41.7766C41.3566 14.83 41.2366 14.95 41.2366 15.37V22.39C41.2366 23.26 40.9966 23.5 40.1266 23.5H38.2066C37.3366 23.5 37.0966 23.26 37.0966 22.39V2.11C37.0966 1.24 37.3366 0.999998 38.2066 0.999998H42.1666C46.7266 0.999998 48.7966 2.56 48.7966 6.4V8.56C48.7966 11.38 48.3466 12.46 46.7566 13.81C46.5766 13.93 46.5466 13.99 46.5466 14.14C46.5466 14.23 46.5766 14.32 46.6366 14.53L49.2766 22.36C49.5466 23.14 49.2466 23.5 48.4666 23.5H46.2766C45.4366 23.5 45.2566 23.38 45.0166 22.66ZM41.2366 5.59V10.21C41.2366 10.63 41.3566 10.75 41.7766 10.75H42.4066C43.8166 10.75 44.5366 10.12 44.5366 8.68V7.03C44.5366 5.62 43.8766 5.05 42.4066 5.05H41.7766C41.3566 5.05 41.2366 5.17 41.2366 5.59ZM62.5876 16.9C62.5876 21.97 61.1476 23.8 56.7976 23.8C52.4476 23.8 51.0076 21.97 51.0076 16.9V7.6C51.0076 2.56 52.4476 0.699998 56.7976 0.699998C61.1476 0.699998 62.5876 2.56 62.5876 7.6V16.9ZM55.2676 17.92C55.2676 19.12 55.7476 19.6 56.7976 19.6C57.8476 19.6 58.3276 19.12 58.3276 17.92V6.73C58.3276 5.41 57.8476 4.9 56.7976 4.9C55.7476 4.9 55.2676 5.41 55.2676 6.73V17.92ZM73.1985 22.39V14.29C73.1985 13.87 73.0785 13.75 72.6585 13.75H70.1985C69.7785 13.75 69.6585 13.87 69.6585 14.29V22.39C69.6585 23.26 69.4185 23.5 68.5485 23.5H66.6285C65.7585 23.5 65.5185 23.26 65.5185 22.39V2.11C65.5185 1.24 65.7585 0.999998 66.6285 0.999998H68.5485C69.4185 0.999998 69.6585 1.24 69.6585 2.11V9.01C69.6585 9.4 69.7785 9.55 70.1985 9.55H72.6585C73.0785 9.55 73.1985 9.4 73.1985 9.01V2.11C73.1985 1.24 73.4385 0.999998 74.3085 0.999998H76.2285C77.0985 0.999998 77.3385 1.24 77.3385 2.11V22.39C77.3385 23.26 77.0985 23.5 76.2285 23.5H74.3085C73.4385 23.5 73.1985 23.26 73.1985 22.39ZM84.7191 2.11V22.39C84.7191 23.26 84.4791 23.5 83.6091 23.5H81.6891C80.8191 23.5 80.5791 23.26 80.5791 22.39V2.11C80.5791 1.24 80.8191 0.999998 81.6891 0.999998H83.6091C84.4791 0.999998 84.7191 1.24 84.7191 2.11ZM95.1945 15.49C95.1945 15.07 95.0745 14.95 94.6545 14.95H94.2945C93.4245 14.95 93.1845 14.71 93.1845 13.84V11.86C93.1845 10.99 93.4245 10.75 94.2945 10.75H98.1045C98.9745 10.75 99.2145 10.99 99.2145 11.86V17.2C99.2145 22.03 97.7745 23.8 93.4245 23.8C89.0745 23.8 87.6345 22.03 87.6345 17.2V7.3C87.6345 2.47 89.0745 0.699998 93.4245 0.699998C97.7745 0.699998 99.1545 2.47 99.1545 7.3V7.45C99.1545 8.32 98.9145 8.56 98.0445 8.56H96.1245C95.2545 8.56 95.0145 8.32 95.0145 7.45V6.58C95.0145 5.38 94.5045 4.9 93.4545 4.9C92.4045 4.9 91.8945 5.38 91.8945 6.58V17.92C91.8945 19.12 92.4345 19.6 93.5445 19.6C94.6845 19.6 95.1945 19.12 95.1945 17.92V15.49ZM106.168 5.74V9.1C106.168 9.49 106.288 9.64 106.708 9.64H110.428C111.298 9.64 111.538 9.88 111.538 10.75V12.73C111.538 13.6 111.298 13.84 110.488 13.84H106.708C106.288 13.84 106.168 13.96 106.168 14.38V18.76C106.168 19.15 106.288 19.3 106.708 19.3H110.788C111.658 19.3 111.898 19.54 111.898 20.41V22.39C111.898 23.26 111.658 23.5 110.788 23.5H103.138C102.268 23.5 102.028 23.26 102.028 22.39V2.11C102.028 1.24 102.268 0.999998 103.138 0.999998H110.788C111.658 0.999998 111.898 1.24 111.898 2.11V4.09C111.898 4.96 111.658 5.2 110.788 5.2H106.708C106.288 5.2 106.168 5.32 106.168 5.74ZM118.056 20.89V21.67C118.056 22.9 117.456 23.5 116.226 23.5H115.446C114.246 23.5 113.616 22.9 113.616 21.67V20.89C113.616 19.69 114.246 19.06 115.446 19.06H116.226C117.456 19.06 118.056 19.69 118.056 20.89Z" fill="#9333EA"/>
</svg>
