<svg width="65" height="170" viewBox="0 0 65 170" fill="none" xmlns="http://www.w3.org/2000/svg">
<g clip-path="url(#clip0_2601_347)">
<path d="M44.0254 169.949L65 169.949L54.5127 159.462L44.0254 169.949Z" fill="#9333EA"/>
<path d="M44.0254 134.411L65 134.411L54.5127 123.923L44.0254 134.411Z" fill="#9333EA"/>
<path d="M44.0254 98.8569L65 98.8569L54.5127 88.3696L44.0254 98.8569Z" fill="#9333EA"/>
<path d="M44.0254 63.3184L65 63.3184L54.5127 52.8311L44.0254 63.3184Z" fill="#9333EA"/>
<path d="M44.0254 27.7795L65 27.7795L54.5127 17.2771L44.0254 27.7795Z" fill="#9333EA"/>
<path d="M0.000263214 152.672L20.9749 152.672L10.4876 142.185L0.000263214 152.672Z" fill="#9333EA"/>
<path d="M1.90735e-05 117.119L20.9746 117.119L10.4873 106.631L1.90735e-05 117.119Z" fill="#9333EA"/>
<path d="M1.90735e-05 81.5801L20.9746 81.5801L10.4873 71.0928L1.90735e-05 81.5801Z" fill="#9333EA"/>
<path d="M1.90735e-05 46.0415L20.9746 46.0415L10.4873 35.5542L1.90735e-05 46.0415Z" fill="#9333EA"/>
<path d="M1.90735e-05 10.4878L20.9746 10.4878L10.4873 0.000501596L1.90735e-05 10.4878Z" fill="#9333EA"/>
</g>
<defs>
<clipPath id="clip0_2601_347">
<rect width="65" height="169.949" fill="white" transform="translate(65 169.949) rotate(180)"/>
</clipPath>
</defs>
</svg>
